<svg width="214" height="214" viewBox="0 0 214 214" fill="none" xmlns="http://www.w3.org/2000/svg">
<path d="M213.667 107L171 64.3333V96.3333H85.6667V117.667H171V149.667M192.333 171C178.901 188.91 160.174 202.14 138.805 208.815C117.435 215.49 94.5076 215.272 73.269 208.193C52.0304 201.113 33.5577 187.531 20.4675 169.369C7.37731 151.207 0.333328 129.387 0.333328 107C0.333328 84.6125 7.37731 62.7926 20.4675 44.6309C33.5577 26.4693 52.0304 12.8867 73.269 5.80713C94.5076 -1.27241 117.435 -1.48998 138.805 5.18523C160.174 11.8604 178.901 25.09 192.333 43H163.213C150.897 32.1378 135.707 25.0602 119.468 22.6166C103.229 20.1731 86.6291 22.4673 71.6613 29.224C56.6935 35.9807 43.9932 46.9129 35.0846 60.7087C26.1759 74.5044 21.4373 90.5778 21.4373 107C21.4373 123.422 26.1759 139.496 35.0846 153.291C43.9932 167.087 56.6935 178.019 71.6613 184.776C86.6291 191.533 103.229 193.827 119.468 191.383C135.707 188.94 150.897 181.862 163.213 171H192.333Z" fill="url(#paint0_linear_2_5)"/>
<defs>
<linearGradient id="paint0_linear_2_5" x1="7.00001" y1="-9.00001" x2="214" y2="295" gradientUnits="userSpaceOnUse">
<stop stop-color="#FF0844"/>
<stop offset="1" stop-color="#FFB199"/>
</linearGradient>
</defs>
</svg>
