<svg width="80" height="104" viewBox="0 0 80 104" fill="none" xmlns="http://www.w3.org/2000/svg">
<path fill-rule="evenodd" clip-rule="evenodd" d="M24.0833 1.41667C22.0113 1.41667 20.0242 2.23977 18.5591 3.7049C17.0939 5.17003 16.2708 7.15717 16.2708 9.22917H8.45833C6.38633 9.22917 4.39919 10.0523 2.93406 11.5174C1.46893 12.9825 0.645834 14.9697 0.645834 17.0417V89.9583C0.645834 92.0303 1.46893 94.0175 2.93406 95.4826C4.39919 96.9477 6.38633 97.7708 8.45833 97.7708H39.7083V92.5625H8.45833C7.76767 92.5625 7.10529 92.2881 6.61691 91.7998C6.12853 91.3114 5.85417 90.649 5.85417 89.9583V17.0417C5.85417 16.351 6.12853 15.6886 6.61691 15.2002C7.10529 14.7119 7.76767 14.4375 8.45833 14.4375H16.2708C16.2708 16.5095 17.0939 18.4967 18.5591 19.9618C20.0242 21.4269 22.0113 22.25 24.0833 22.25H44.9167C46.9887 22.25 48.9758 21.4269 50.4409 19.9618C51.9061 18.4967 52.7292 16.5095 52.7292 14.4375H60.5417C61.2323 14.4375 61.8947 14.7119 62.3831 15.2002C62.8715 15.6886 63.1458 16.351 63.1458 17.0417V56.1042H68.3542V17.0417C68.3542 14.9697 67.5311 12.9825 66.0659 11.5174C64.6008 10.0523 62.6137 9.22917 60.5417 9.22917H52.7292C52.7292 7.15717 51.9061 5.17003 50.4409 3.7049C48.9758 2.23977 46.9887 1.41667 44.9167 1.41667H24.0833ZM21.4792 9.22917C21.4792 8.5385 21.7535 7.87612 22.2419 7.38775C22.7303 6.89937 23.3927 6.62501 24.0833 6.62501H44.9167C45.6073 6.62501 46.2697 6.89937 46.7581 7.38775C47.2465 7.87612 47.5208 8.5385 47.5208 9.22917V14.4375C47.5208 15.1282 47.2465 15.7906 46.7581 16.2789C46.2697 16.7673 45.6073 17.0417 44.9167 17.0417H24.0833C23.3927 17.0417 22.7303 16.7673 22.2419 16.2789C21.7535 15.7906 21.4792 15.1282 21.4792 14.4375V9.22917ZM31.8958 40.4792V32.6667H37.1042V40.4792H44.9167V45.6875H37.1042V53.5H31.8958V45.6875H24.0833V40.4792H31.8958ZM42.3125 63.9167C42.3125 63.226 42.5869 62.5636 43.0752 62.0752C43.5636 61.5869 44.226 61.3125 44.9167 61.3125H76.1667C76.8573 61.3125 77.5197 61.5869 78.0081 62.0752C78.4965 62.5636 78.7708 63.226 78.7708 63.9167V81.5964C78.7707 84.5972 78.0298 87.5516 76.6138 90.1974C75.1978 92.8431 73.1505 95.0984 70.6536 96.763L61.987 102.544C61.559 102.83 61.0561 102.982 60.5417 102.982C60.0272 102.982 59.5243 102.83 59.0964 102.544L50.4297 96.763C47.9332 95.0987 45.8862 92.8438 44.4702 90.1985C43.0542 87.5533 42.3131 84.5994 42.3125 81.599V63.9167ZM47.5208 66.5208V81.5964C47.5211 83.74 48.0506 85.8503 49.0623 87.7402C50.074 89.63 51.5366 91.2409 53.3203 92.4297L60.5417 97.25L67.763 92.4323C69.5468 91.2435 71.0094 89.6326 72.0211 87.7428C73.0328 85.853 73.5623 83.7426 73.5625 81.599V66.5208H47.5208ZM59.7787 86.5912L70.1953 76.1745L66.513 72.4922L57.9375 81.0677L54.5703 77.7005L50.888 81.3828L56.0964 86.5912C56.5847 87.0794 57.247 87.3536 57.9375 87.3536C58.628 87.3536 59.2903 87.0794 59.7787 86.5912Z" fill="url(#paint0_linear_3_3)" stroke="url(#paint1_linear_3_3)"/>
<defs>
<linearGradient id="paint0_linear_3_3" x1="0.645833" y1="18.7897" x2="83.8931" y2="24.2024" gradientUnits="userSpaceOnUse">
<stop stop-color="#00A3FF"/>
<stop offset="1" stop-color="#00C2FF"/>
</linearGradient>
<linearGradient id="paint1_linear_3_3" x1="0.645833" y1="18.7897" x2="83.8931" y2="24.2024" gradientUnits="userSpaceOnUse">
<stop stop-color="#00A3FF"/>
<stop offset="1" stop-color="#00C2FF"/>
</linearGradient>
</defs>
</svg>
