<svg width="210" height="210" viewBox="0 0 210 210" fill="none" xmlns="http://www.w3.org/2000/svg">
<path d="M94.5833 167.5H115.417V146.667H94.5833V167.5ZM105 0.833344C91.3206 0.833344 77.7752 3.52769 65.1371 8.76256C52.4991 13.9974 41.0158 21.6703 31.343 31.3431C11.808 50.8781 0.833336 77.3733 0.833336 105C0.833336 132.627 11.808 159.122 31.343 178.657C41.0158 188.33 52.4991 196.003 65.1371 201.237C77.7752 206.472 91.3206 209.167 105 209.167C132.627 209.167 159.122 198.192 178.657 178.657C198.192 159.122 209.167 132.627 209.167 105C209.167 91.3206 206.472 77.7752 201.237 65.1371C196.003 52.4991 188.33 41.0158 178.657 31.3431C168.984 21.6703 157.501 13.9974 144.863 8.76256C132.225 3.52769 118.679 0.833344 105 0.833344ZM105 188.333C59.0625 188.333 21.6667 150.937 21.6667 105C21.6667 59.0625 59.0625 21.6667 105 21.6667C150.937 21.6667 188.333 59.0625 188.333 105C188.333 150.937 150.937 188.333 105 188.333ZM105 42.5C93.9493 42.5 83.3512 46.8899 75.5372 54.7039C67.7232 62.5179 63.3333 73.116 63.3333 84.1667H84.1667C84.1667 78.6413 86.3616 73.3423 90.2686 69.4353C94.1756 65.5283 99.4747 63.3333 105 63.3333C110.525 63.3333 115.824 65.5283 119.731 69.4353C123.638 73.3423 125.833 78.6413 125.833 84.1667C125.833 105 94.5833 102.396 94.5833 136.25H115.417C115.417 112.813 146.667 110.208 146.667 84.1667C146.667 73.116 142.277 62.5179 134.463 54.7039C126.649 46.8899 116.051 42.5 105 42.5Z" fill="url(#paint0_linear_2_3)"/>
<defs>
<linearGradient id="paint0_linear_2_3" x1="-114" y1="-79" x2="217" y2="239" gradientUnits="userSpaceOnUse">
<stop stop-color="#FA709A"/>
<stop offset="1" stop-color="#FEE140"/>
</linearGradient>
</defs>
</svg>
